{"title":"Star Trek Beyond 2016 720p HDRIP x264 AC3 5 1 TiTAN","uid":15914005,"size":3435539527,"categoryP":"video","categoryS":"hd___movies","magnet":"?xt=urn:btih:815710d5a137d18c576225167ee3815419338b86&amp;dn=Star+Trek+Beyond+2016+720p+HDRIP+x264+AC3+5+1+TiTAN++&amp;tr=udp%3A%2F%2Ftracker.leechers-paradise.org%3A6969&amp;tr=udp%3A%2F%2Fzer0day.ch%3A1337&amp;tr=udp%3A%2F%2Fopen.demonii.com%3A1337&amp;tr=udp%3A%2F%2Ftracker.coppersurfer.tk%3A6969&amp;tr=udp%3A%2F%2Fexodus.desync.com%3A6969","seeders":11,"leechers":26,"uploader":"makintos13","files":2,"time":1475172825,"description":"Star Trek Beyond 2016 720p HDRIP x264 AC3 5 1 TiTAN  \r\n\r\nScreens:\r\n \nhttps://imgmak.com/aIb\r\n\r\n \nhttps://imgmak.com/aIx\r\n\r\n \nhttps://imgmak.com/aIz\r\n\r\n \nhttps://imgmak.com/aI7\r\n\r\n \nhttps://imgmak.com/aIk\r\n \nhttp://www.imdb.com/title/tt2660888/\r\n\r\nSource: Itunes 1080p\r\n\r\nGeneral\r\n\r\nFormat                      : Matroska\r\nFormat version              : Version 2\r\nFile size                   : 3.20 GiB\r\nDuration                    : 2 h 2 min\r\nOverall bit rate mode       : Variable\r\nOverall bit rate            : 3 744 kb/s\r\nEncoded date                : UTC 2016-09-28 23:07:38\r\nWriting application         : mkvmerge v8.5.2 ('Crosses') 32bit\r\nWriting library             : libebml v1.3.3 + libmatroska v1.4.4\r\n\r\nVideo\r\nID                          : 1\r\nFormat                      : AVC\r\nFormat/Info                 : Advanced Video Codec\r\nFormat profile              :   \r\nFormat settings, CABAC      : Yes\r\nFormat settings, ReFrames   : 3 frames\r\nCodec ID                    : V_MPEG4/ISO/AVC\r\nDuration                    : 2 h 2 min\r\nBit rate mode               : Variable\r\nBit rate                    : 3 358 kb/s\r\nMaximum bit rate            : 40.0 Mb/s\r\nWidth                       : 1 280 pixels\r\nHeight                      : 528 pixels\r\nDisplay aspect ratio        : 2.40:1\r\nFrame rate mode             : Constant\r\nFrame rate                  : 23.976 (24000/1001) FPS\r\nColor space                 : YUV\r\nChroma subsampling          : 4:2:0\r\nBit depth                   : 8 bits\r\nScan type                   : Progressive\r\nBits/(Pixel*Frame)          : 0.207\r\nStream size                 : 2.87 GiB (90%)\r\nDefault                     : Yes\r\nForced                      : No\r\nColor range                 : Full\r\nColor primaries             : BT.709\r\nTransfer characteristics    : BT.709\r\nMatrix coefficients         : BT.709\r\n\r\nAudio\r\nID                          : 2\r\nFormat                      : AC-3\r\nFormat/Info                 : Audio Coding 3\r\nMode extension              : CM (complete main)\r\nFormat settings, Endianness : Big\r\nCodec ID                    : A_AC3\r\nDuration                    : 2 h 2 min\r\nBit rate mode               : Constant\r\nBit rate                    : 384 kb/s\r\nChannel(s)                  : 6 channels\r\nChannel positions           : Front: L C R, Side: L R, LFE\r\nSampling rate               : 48.0 kHz\r\nFrame rate                  : 31.250 FPS (1536 spf)\r\nCompression mode            : Lossy\r\nStream size                 : 336 MiB (10%)\r\nLanguage                    : English\r\nDefault                     : Yes\r\nForced                      : No\r\n\r\nText\r\nID                          : 3\r\nFormat                      : UTF-8\r\nCodec ID                    : S_TEXT/UTF8\r\nCodec ID/Info               : UTF-8 Plain Text\r\nDuration                    : 59 min\r\nBit rate                    : 0 b/s\r\nCount of elements           : 15\r\nStream size                 : 365 Bytes (0%)\r\nLanguage                    : English\r\nDefault                     : Yes\r\nForced                      : Yes","torrent":{"xt":"urn:btih:815710d5a137d18c576225167ee3815419338b86","amp;dn":"Star+Trek+Beyond+2016+720p+HDRIP+x264+AC3+5+1+TiTAN++","amp;tr":["udp%3A%2F%2Ftracker.leechers-paradise.org%3A6969","udp%3A%2F%2Fzer0day.ch%3A1337","udp%3A%2F%2Fopen.demonii.com%3A1337","udp%3A%2F%2Ftracker.coppersurfer.tk%3A6969","udp%3A%2F%2Fexodus.desync.com%3A6969"],"infoHash":"815710d5a137d18c576225167ee3815419338b86","infoHashBuffer":{"type":"Buffer","data":[129,87,16,213,161,55,209,140,87,98,37,22,126,227,129,84,25,51,139,134]},"announce":[],"urlList":[]}}